<svg xmlns="http://www.w3.org/2000/svg" viewBox="0 0 1000 1250" width="1000" height="1250" role="img" aria-label="Placeholder — labelled anatomy diagram">
  <defs>
    <linearGradient id="fold2" x1="0" x2="1" y1="0" y2="0">
      <stop offset="0%" stop-color="#0a0a0a" stop-opacity="0.09"/>
      <stop offset="45%" stop-color="#0a0a0a" stop-opacity="0"/>
      <stop offset="100%" stop-color="#0a0a0a" stop-opacity="0.05"/>
    </linearGradient>
  </defs>

  <rect width="1000" height="1250" fill="#fbfbfb"/>
  <rect width="1000" height="1250" fill="url(#fold2)"/>

  <text x="90" y="120" font-family="Inter, Helvetica, Arial, sans-serif" font-size="19" letter-spacing="5" fill="#0a0a0a" opacity="0.35">PLATE 12</text>
  <text x="910" y="120" text-anchor="end" font-family="Inter, Helvetica, Arial, sans-serif" font-size="19" letter-spacing="5" fill="#0a0a0a" opacity="0.35">ANATOMY</text>
  <rect x="90" y="146" width="820" height="1" fill="#0a0a0a" opacity="0.14"/>

  <text x="90" y="238" font-family="'Space Grotesk', Inter, sans-serif" font-size="58" font-weight="500" letter-spacing="-2" fill="#0a0a0a">Thoracic cavity</text>

  <!-- abstract organ study -->
  <g stroke="#0a0a0a" fill="none">
    <path d="M500 356c-96 0-170 64-170 152 0 118 96 190 170 262 74-72 170-144 170-262 0-88-74-152-170-152Z" stroke-opacity="0.6" stroke-width="2.5"/>
    <path d="M500 356v414" stroke-opacity="0.22" stroke-dasharray="7 9"/>
    <path d="M368 462c58 32 108 44 132 44s74-12 132-44" stroke-opacity="0.35" stroke-width="2"/>
    <path d="M406 588c46-26 82-34 94-34s48 8 94 34" stroke-opacity="0.35" stroke-width="2"/>
    <ellipse cx="440" cy="522" rx="34" ry="46" stroke-opacity="0.3"/>
    <ellipse cx="560" cy="522" rx="34" ry="46" stroke-opacity="0.3"/>
  </g>

  <!-- leader lines + labels -->
  <g stroke="#0a0a0a" stroke-opacity="0.35">
    <path d="M330 452H150" fill="none"/>
    <path d="M356 596H150" fill="none"/>
    <path d="M670 452h180" fill="none"/>
    <path d="M644 596h206" fill="none"/>
  </g>
  <g fill="#0a0a0a">
    <circle cx="330" cy="452" r="4.5" opacity="0.7"/>
    <circle cx="356" cy="596" r="4.5" opacity="0.7"/>
    <circle cx="670" cy="452" r="4.5" opacity="0.7"/>
    <circle cx="644" cy="596" r="4.5" opacity="0.7"/>
  </g>
  <g fill="#0a0a0a" opacity="0.45">
    <rect x="90" y="426" width="60" height="7" rx="3.5"/>
    <rect x="90" y="570" width="60" height="7" rx="3.5"/>
    <rect x="850" y="426" width="60" height="7" rx="3.5"/>
    <rect x="850" y="570" width="60" height="7" rx="3.5"/>
  </g>

  <rect x="90" y="856" width="820" height="1" fill="#0a0a0a" opacity="0.14"/>

  <g fill="#0a0a0a" opacity="0.45">
    <rect x="90" y="900" width="366" height="8" rx="4"/>
    <rect x="90" y="932" width="322" height="8" rx="4"/>
    <rect x="90" y="964" width="392" height="8" rx="4"/>
    <rect x="544" y="900" width="366" height="8" rx="4"/>
    <rect x="544" y="932" width="284" height="8" rx="4"/>
    <rect x="544" y="964" width="340" height="8" rx="4"/>
  </g>

  <rect x="90" y="1030" width="820" height="88" rx="20" fill="none" stroke="#0a0a0a" stroke-opacity="0.16"/>
  <text x="120" y="1082" font-family="Inter, Helvetica, Arial, sans-serif" font-size="18" letter-spacing="4" fill="#0a0a0a" opacity="0.35">HIGH YIELD</text>

  <text x="90" y="1180" font-family="Inter, Helvetica, Arial, sans-serif" font-size="17" letter-spacing="4" fill="#0a0a0a" opacity="0.28">THE WIZ — 12.0</text>
</svg>
